<svg xmlns="http://www.w3.org/2000/svg" width="67.429" height="67.43" viewBox="0 0 67.429 67.43"><defs><style>.a{fill:none;}.b{fill:#1a1a1a;}</style></defs><rect class="a" width="67.429" height="67.429"/><rect class="a" width="50.572" height="50.572" transform="translate(8.429 8.429)"/><g transform="translate(8.025 14.041)"><path class="b" d="M655.974,697.566h37.74l-.372,1.334-3.615,12.94a6.277,6.277,0,0,1-1.48,2.762,3.577,3.577,0,0,1-2.614,1.092H659.661a2.429,2.429,0,0,1-1.752-.729,3.057,3.057,0,0,1-.829-1.712l-2.146-14.48-.179-1.206h1.22Zm34.97,2.107h-33.75l1.968,13.275a.941.941,0,0,0,.237.527.366.366,0,0,0,.262.112h25.972a1.542,1.542,0,0,0,1.124-.475,4.21,4.21,0,0,0,.945-1.832l3.242-11.607Z" transform="translate(-641.222 -688.641)"/><path class="b" d="M264.571,453.524h-7.9l-.236-.733-7.382-22.867-5.3-1.421.543-2.033,5.854,1.569.552.148.177.548,7.322,22.683h6.374Z" transform="translate(-243.749 -426.47)"/><path class="b" d="M1297.927,1184.477a1.054,1.054,0,0,0-1.49,1.49l8.01,8.01a1.054,1.054,0,0,0,1.49-1.49Z" transform="translate(-1261.479 -1159.222)"/><path class="b" d="M1413.779,1296.45a5.367,5.367,0,1,1-3.8,1.572A5.351,5.351,0,0,1,1413.779,1296.45Zm2.3,3.062a3.26,3.26,0,1,0,.955,2.305A3.249,3.249,0,0,0,1416.084,1299.512Z" transform="translate(-1370.066 -1267.806)"/><path class="b" d="M778.039,1205.148a1.052,1.052,0,0,0-2.033-.543l-3.131,11.684a1.052,1.052,0,0,0,2.033.543Z" transform="translate(-755.419 -1178.23)"/></g></svg>