<svg xmlns="http://www.w3.org/2000/svg" width="84.174" height="84.174" viewBox="0 0 84.174 84.174"><defs><style>.a{fill:none;}.b{fill:#333;}</style></defs><g transform="translate(0 0.001)"><rect class="a" width="84.174" height="84.174"/><rect class="a" width="63.13" height="63.13" transform="translate(10.522 10.522)"/><g transform="translate(11.693 20.378)"><path class="b" d="M453.345,1136.5a8.544,8.544,0,1,1-6.041,2.5A8.516,8.516,0,0,1,453.345,1136.5Zm4.181,4.362a5.913,5.913,0,1,0,1.732,4.181A5.894,5.894,0,0,0,457.526,1140.862Z" transform="translate(-438.214 -1110.167)"/><path class="b" d="M1388.333,1136.5a8.543,8.543,0,1,1-6.041,2.5A8.516,8.516,0,0,1,1388.333,1136.5Zm4.181,4.362a5.912,5.912,0,1,0,1.732,4.181A5.894,5.894,0,0,0,1392.513,1140.862Z" transform="translate(-1334.773 -1110.167)"/><line class="a" x2="29.741" transform="translate(19.272 28.951)"/><path class="b" d="M790.328,1392.2h27.28v2.63h-27.28Z" transform="translate(-769.538 -1355.357)"/><path class="b" d="M829.819,976.2h22.359V986.72H828.5V976.2Zm19.728,2.63H831.135v5.261h18.413Z" transform="translate(-806.145 -956.453)"/><path class="b" d="M765.818,784.2h27.62V794.72H764.5V784.2Zm24.989,2.631H767.134v5.261h23.674Z" transform="translate(-744.775 -772.345)"/><path class="b" d="M304.411,525.056l-15.372-26.624H284.5V495.8h6.042l.383.663,15.754,27.287Z" transform="translate(-284.503 -495.801)"/><path class="b" d="M1155.076,722.828H1148.5V720.2h6.576Z" transform="translate(-1112.989 -710.975)"/></g></g></svg>