<svg xmlns="http://www.w3.org/2000/svg" width="68.035" height="68.035" viewBox="0 0 68.035 68.035"><defs><style>.a{fill:none;}.b{fill:#333;}</style></defs><g transform="translate(0 -0.001)"><rect class="a" width="68.035" height="68.035"/><rect class="a" width="51.026" height="51.026" transform="translate(8.504 8.504)"/><path class="b" d="M265.634,581.782c10.8-1.487,16.969,1.181,19.927,5.051a11.126,11.126,0,0,1,.9,11.875c-1.887,3.556-5.568,5.693-9.751,3.882-4.024-1.742-8.487-7.367-11.957-19.466l-.337-1.174,1.217-.168Zm18.241,6.338c-2.438-3.191-7.6-5.405-16.728-4.39,3.2,10.563,7.017,15.45,10.4,16.916,2.981,1.291,5.644-.306,7.035-2.927A8.994,8.994,0,0,0,283.875,588.12Z" transform="translate(-255.633 -562.051)"/><g transform="translate(32.212 12.965)"><path class="b" d="M1128.7,392.43c-9.175-.326-14.137,2.142-16.3,5.373a8.543,8.543,0,0,0,.166,9.474c1.682,2.509,4.573,3.9,7.485,2.365C1123.276,407.937,1126.583,402.894,1128.7,392.43Zm-18.065,4.193c2.635-3.927,8.552-6.9,19.4-6.254l1.2.072-.22,1.178c-2.246,12.03-6.133,17.866-9.982,19.9-4.037,2.131-7.979.3-10.234-3.062A10.665,10.665,0,0,1,1110.638,396.623Z" transform="translate(-1104.297 -390.28)"/><path class="b" d="M983.562,755.589a1.06,1.06,0,1,0-.83-1.952c-4.193,1.8-7.757,5.948-10.094,11.261a36.544,36.544,0,0,0-2.828,17.726,1.059,1.059,0,1,0,2.109-.191,34.387,34.387,0,0,1,2.662-16.68C976.709,760.915,979.884,757.165,983.562,755.589Z" transform="translate(-969.662 -741.484)"/></g><path class="b" d="M662.2,920.953a1.061,1.061,0,0,0-1.437,1.562,17.082,17.082,0,0,1,5.208,8.34c.964,3.394,1.286,7.6,1.5,13.281a1.06,1.06,0,1,0,2.118-.075c-.216-5.852-.552-10.194-1.571-13.779A19.1,19.1,0,0,0,662.2,920.953Z" transform="translate(-638.484 -890.088)"/></g></svg>