<svg xmlns="http://www.w3.org/2000/svg" width="80.721" height="80.721" viewBox="0 0 80.721 80.721"><defs><style>.a{fill:none;}.b{fill:#333;}</style></defs><g transform="translate(80.721 -0.001) rotate(90)"><rect class="a" width="80.721" height="80.721"/><rect class="a" width="60.541" height="60.541" transform="translate(10.09 10.09)"/><g transform="translate(25.761 9.37)"><path class="b" d="M2.523,1.261A1.261,1.261,0,0,0,0,1.261v59.28a1.261,1.261,0,1,0,2.523,0Z" transform="translate(0 0.089)"/><path class="b" d="M2.523,1.261A1.261,1.261,0,1,0,0,1.261v59.28a1.261,1.261,0,1,0,2.523,0Z" transform="translate(26.676 0.089)"/><path class="b" d="M0,0H26.676V2.523H0Z" transform="translate(1.261 10.452)"/><path class="b" d="M0,0H26.676V2.523H0Z" transform="translate(1.261)"/><path class="b" d="M0,0H26.676V2.523H0Z" transform="translate(1.261 20.832)"/><path class="b" d="M0,0H26.676V2.523H0Z" transform="translate(1.261 30.465)"/><path class="b" d="M0,0H26.676V2.523H0Z" transform="translate(1.261 50.477)"/><path class="b" d="M0,0H26.676V2.523H0Z" transform="translate(1.261 59.436)"/><path class="b" d="M0,0H26.676V2.522H0Z" transform="translate(1.261 40.844)"/></g></g></svg>