<svg xmlns="http://www.w3.org/2000/svg" width="72" height="72" viewBox="0 0 72 72"><defs><style>.a{fill:none;}.b{fill:#212121;}</style></defs><g transform="translate(-0.058 0.011)"><g transform="translate(0 0)"><rect class="a" width="72" height="72" transform="translate(0.058 -0.011)"/><rect class="a" width="55" height="54" transform="translate(8.058 8.989)"/></g><g transform="translate(4.798 8.16)"><path class="b" d="M419.676,252.966h6.951v2.317h-6.951Z" transform="translate(-414.463 -252.966)"/><g transform="translate(0 1.159)"><path class="b" d="M485.992,284.967V323.2h-2.317v-38.23Z" transform="translate(-476.145 -284.967)"/><path class="b" d="M276.832,1308.97h16.219v8.979a8.421,8.421,0,0,1-8.4,8.4h-.579a8.421,8.421,0,0,1-8.4-8.4v-8.979h1.158Zm13.9,2.317H277.99v6.661a6.1,6.1,0,0,0,6.082,6.082h.579a6.1,6.1,0,0,0,6.082-6.082Z" transform="translate(-275.673 -1271.899)"/></g></g><path class="b" d="M965.991,1345.27v16.282h-2.317V1345.27Z" transform="translate(-929.795 -1297.565)"/><path class="b" d="M807.083,1480.768v-4.789a4.4,4.4,0,0,0-2.869-4.321,5.933,5.933,0,0,0-4.167,0,4.4,4.4,0,0,0-2.869,4.321v4.789H794.86v-4.789a6.623,6.623,0,0,1,4.354-6.475,8.129,8.129,0,0,1,5.832,0,6.623,6.623,0,0,1,4.354,6.475v4.789Z" transform="translate(-767.093 -1416.78)"/><path class="b" d="M965.991,316.966v40.369h-2.317V316.966Z" transform="translate(-929.795 -306.489)"/><path class="b" d="M899.675,252.966h6.951v2.317h-6.951Z" transform="translate(-868.113 -244.806)"/></g></svg>